<svg width="933" height="1016" viewBox="0 0 933 1016" fill="none" xmlns="http://www.w3.org/2000/svg">
<path d="M418.721 586.215C594.153 359.893 827.713 146.932 1083.22 276.215C1373.14 422.908 1473.22 1476.22 1083.22 1108.22C693.223 740.215 480.971 1337.97 251.221 1108.22C21.4705 878.465 287.56 755.425 418.721 586.215Z" fill="#3D7B82"/>
<path d="M418.721 586.215C594.153 359.893 827.713 146.932 1083.22 276.215C1373.14 422.908 1473.22 1476.22 1083.22 1108.22C693.223 740.215 480.971 1337.97 251.221 1108.22C21.4705 878.465 287.56 755.425 418.721 586.215Z" fill="url(#paint0_linear_1223_18502)" fill-opacity="0.6"/>
<path d="M849.425 -207.269C563.12 -212.518 250.776 -164.106 191.277 115.997C123.765 433.822 881.535 1172.24 839.403 637.683C797.271 103.13 1396 312.592 1361.09 -10.4431C1326.17 -333.478 1063.48 -203.344 849.425 -207.269Z" fill="#3D7B82"/>
<path d="M849.425 -207.269C563.12 -212.518 250.776 -164.106 191.277 115.997C123.765 433.822 881.535 1172.24 839.403 637.683C797.271 103.13 1396 312.592 1361.09 -10.4431C1326.17 -333.478 1063.48 -203.344 849.425 -207.269Z" fill="url(#paint1_linear_1223_18502)" fill-opacity="0.6"/>
<g opacity="0.8">
<path d="M601.893 77.5998C816.241 -198.875 1101.61 -459.026 1413.8 -301.095C1768.03 -121.895 1890.31 1164.82 1413.8 715.273C937.288 265.726 677.952 995.935 397.235 715.273C116.518 434.611 441.635 284.306 601.893 77.5998Z" fill="#3D7B82"/>
<path d="M601.893 77.5998C816.241 -198.875 1101.61 -459.026 1413.8 -301.095C1768.03 -121.895 1890.31 1164.82 1413.8 715.273C937.288 265.726 677.952 995.935 397.235 715.273C116.518 434.611 441.635 284.306 601.893 77.5998Z" fill="url(#paint2_linear_1223_18502)" fill-opacity="0.6"/>
</g>
<path d="M1362.21 728.155C1280.36 1002.56 1139.47 1285.5 854.517 1257.22C531.189 1225.13 57.4594 279.057 554.039 481.371C1050.62 683.686 1032.67 49.6241 1329.89 180.894C1627.1 312.163 1423.41 522.997 1362.21 728.155Z" fill="#3D7B82"/>
<path d="M1362.21 728.155C1280.36 1002.56 1139.47 1285.5 854.517 1257.22C531.189 1225.13 57.4594 279.057 554.039 481.371C1050.62 683.686 1032.67 49.6241 1329.89 180.894C1627.1 312.163 1423.41 522.997 1362.21 728.155Z" fill="url(#paint3_linear_1223_18502)" fill-opacity="0.6"/>
<path d="M1362.21 728.155C1280.36 1002.56 1139.47 1285.5 854.517 1257.22C531.189 1225.13 57.4593 279.057 554.039 481.371C1050.62 683.686 1032.67 49.6241 1329.89 180.894C1627.1 312.163 1423.41 522.997 1362.21 728.155Z" fill="#3D7B82"/>
<path d="M1362.21 728.155C1280.36 1002.56 1139.47 1285.5 854.517 1257.22C531.189 1225.13 57.4593 279.057 554.039 481.371C1050.62 683.686 1032.67 49.6241 1329.89 180.894C1627.1 312.163 1423.41 522.997 1362.21 728.155Z" fill="url(#paint4_linear_1223_18502)" fill-opacity="0.6"/>
<defs>
<linearGradient id="paint0_linear_1223_18502" x1="49" y1="1126" x2="805.715" y2="1138.7" gradientUnits="userSpaceOnUse">
<stop stop-color="#C0F3F9"/>
<stop offset="0.598792" stop-color="#69CDD9"/>
<stop offset="1" stop-color="#2EB3C4"/>
</linearGradient>
<linearGradient id="paint1_linear_1223_18502" x1="875.238" y1="-127.17" x2="943.258" y2="526.258" gradientUnits="userSpaceOnUse">
<stop stop-color="#C0F3F9"/>
<stop offset="1" stop-color="#2EB3C4"/>
</linearGradient>
<linearGradient id="paint2_linear_1223_18502" x1="316.5" y1="230.5" x2="783.741" y2="593.906" gradientUnits="userSpaceOnUse">
<stop stop-color="#C0F3F9"/>
<stop offset="1" stop-color="#2EB3C4"/>
</linearGradient>
<linearGradient id="paint3_linear_1223_18502" x1="1008" y1="350" x2="175.68" y2="683.482" gradientUnits="userSpaceOnUse">
<stop stop-color="#2EB3C4"/>
<stop offset="1" stop-color="#C0F3F9"/>
</linearGradient>
<linearGradient id="paint4_linear_1223_18502" x1="1008" y1="350" x2="175.68" y2="683.482" gradientUnits="userSpaceOnUse">
<stop stop-color="#2EB3C4"/>
<stop offset="1" stop-color="#C0F3F9"/>
</linearGradient>
</defs>
</svg>
