<svg width="64" height="65" viewBox="0 0 64 65" fill="none" xmlns="http://www.w3.org/2000/svg">
<rect y="0.5" width="64" height="64" rx="32" fill="#DEE9EB"/>
<path d="M23.1352 34.4203H27.7702V45.2203C27.7702 47.7403 29.1352 48.2503 30.8002 46.3603L42.1552 33.4603C43.5502 31.8853 42.9652 30.5803 40.8502 30.5803H36.2152V19.7803C36.2152 17.2603 34.8502 16.7503 33.1852 18.6403L21.8302 31.5403C20.4502 33.1303 21.0352 34.4203 23.1352 34.4203Z" fill="#3D7B82"/>
<path d="M23.1352 34.4203H27.7702V45.2203C27.7702 47.7403 29.1352 48.2503 30.8002 46.3603L42.1552 33.4603C43.5502 31.8853 42.9652 30.5803 40.8502 30.5803H36.2152V19.7803C36.2152 17.2603 34.8502 16.7503 33.1852 18.6403L21.8302 31.5403C20.4502 33.1303 21.0352 34.4203 23.1352 34.4203Z" fill="url(#paint0_linear_1739_1259)" fill-opacity="0.6"/>
<defs>
<linearGradient id="paint0_linear_1739_1259" x1="21.5298" y1="32.5003" x2="44.1022" y2="45.4253" gradientUnits="userSpaceOnUse">
<stop stop-color="#C0F3F9"/>
<stop offset="1" stop-color="#2EB3C4"/>
</linearGradient>
</defs>
</svg>
