<svg width="20" height="21" viewBox="0 0 20 21" fill="none" xmlns="http://www.w3.org/2000/svg">
<path d="M3.33324 3.8335L16.6666 17.1668M13.7499 14.4634C12.6227 15.0706 11.3488 15.5 9.99991 15.5C7.0577 15.5 4.47187 13.4567 2.989 11.9825C2.59759 11.5934 2.40191 11.3988 2.27733 11.0169C2.18849 10.7446 2.18847 10.2556 2.27733 9.98328C2.40194 9.60139 2.59803 9.40637 2.99022 9.01655C3.73763 8.27367 4.76501 7.38649 5.97683 6.68913M16.2499 12.6947C16.5275 12.4506 16.7816 12.2104 17.0097 11.9837L17.0121 11.9812C17.4027 11.593 17.5985 11.3984 17.7228 11.0173C17.8117 10.745 17.8115 10.2559 17.7227 9.9835C17.5981 9.60172 17.4022 9.40662 17.0111 9.01775C15.5282 7.54357 12.9421 5.50016 9.99991 5.50016C9.71866 5.50016 9.44066 5.51883 9.16658 5.5539M11.1023 11.7502C10.8085 12.0095 10.4226 12.1668 9.99991 12.1668C9.07944 12.1668 8.33324 11.4206 8.33324 10.5002C8.33324 10.0506 8.51126 9.64273 8.80064 9.34294" stroke="#4D777C" stroke-width="2" stroke-linecap="round" stroke-linejoin="round"/>
<path d="M3.33324 3.8335L16.6666 17.1668M13.7499 14.4634C12.6227 15.0706 11.3488 15.5 9.99991 15.5C7.0577 15.5 4.47187 13.4567 2.989 11.9825C2.59759 11.5934 2.40191 11.3988 2.27733 11.0169C2.18849 10.7446 2.18847 10.2556 2.27733 9.98328C2.40194 9.60139 2.59803 9.40637 2.99022 9.01655C3.73763 8.27367 4.76501 7.38649 5.97683 6.68913M16.2499 12.6947C16.5275 12.4506 16.7816 12.2104 17.0097 11.9837L17.0121 11.9812C17.4027 11.593 17.5985 11.3984 17.7228 11.0173C17.8117 10.745 17.8115 10.2559 17.7227 9.9835C17.5981 9.60172 17.4022 9.40662 17.0111 9.01775C15.5282 7.54357 12.9421 5.50016 9.99991 5.50016C9.71866 5.50016 9.44066 5.51883 9.16658 5.5539M11.1023 11.7502C10.8085 12.0095 10.4226 12.1668 9.99991 12.1668C9.07944 12.1668 8.33324 11.4206 8.33324 10.5002C8.33324 10.0506 8.51126 9.64273 8.80064 9.34294" stroke="black" stroke-opacity="0.2" stroke-width="2" stroke-linecap="round" stroke-linejoin="round"/>
<path d="M3.33324 3.8335L16.6666 17.1668M13.7499 14.4634C12.6227 15.0706 11.3488 15.5 9.99991 15.5C7.0577 15.5 4.47187 13.4567 2.989 11.9825C2.59759 11.5934 2.40191 11.3988 2.27733 11.0169C2.18849 10.7446 2.18847 10.2556 2.27733 9.98328C2.40194 9.60139 2.59803 9.40637 2.99022 9.01655C3.73763 8.27367 4.76501 7.38649 5.97683 6.68913M16.2499 12.6947C16.5275 12.4506 16.7816 12.2104 17.0097 11.9837L17.0121 11.9812C17.4027 11.593 17.5985 11.3984 17.7228 11.0173C17.8117 10.745 17.8115 10.2559 17.7227 9.9835C17.5981 9.60172 17.4022 9.40662 17.0111 9.01775C15.5282 7.54357 12.9421 5.50016 9.99991 5.50016C9.71866 5.50016 9.44066 5.51883 9.16658 5.5539M11.1023 11.7502C10.8085 12.0095 10.4226 12.1668 9.99991 12.1668C9.07944 12.1668 8.33324 11.4206 8.33324 10.5002C8.33324 10.0506 8.51126 9.64273 8.80064 9.34294" stroke="black" stroke-opacity="0.2" stroke-width="2" stroke-linecap="round" stroke-linejoin="round"/>
</svg>
