<svg width="20" height="20" viewBox="0 0 20 20" fill="none" xmlns="http://www.w3.org/2000/svg">
<path d="M2.9167 17.0833C3.60837 17.775 4.72503 17.775 5.4167 17.0833L16.25 6.25C16.9417 5.55833 16.9417 4.44166 16.25 3.75C15.5584 3.05833 14.4417 3.05833 13.75 3.75L2.9167 14.5833C2.22503 15.275 2.22503 16.3917 2.9167 17.0833Z" stroke="#1D6169" stroke-width="1.5" stroke-linecap="round" stroke-linejoin="round"/>
<path d="M15.0083 7.49167L12.5083 4.99167" stroke="#1D6169" stroke-width="1.5" stroke-linecap="round" stroke-linejoin="round"/>
<path d="M7.08325 2.03334L8.33325 1.66667L7.96659 2.91667L8.33325 4.16667L7.08325 3.8L5.83325 4.16667L6.19992 2.91667L5.83325 1.66667L7.08325 2.03334Z" stroke="#1D6169" stroke-linecap="round" stroke-linejoin="round"/>
<path d="M3.75 7.03334L5 6.66667L4.63333 7.91667L5 9.16667L3.75 8.80001L2.5 9.16667L2.86667 7.91667L2.5 6.66667L3.75 7.03334Z" stroke="#1D6169" stroke-linecap="round" stroke-linejoin="round"/>
<path d="M16.25 11.2L17.5 10.8333L17.1333 12.0833L17.5 13.3333L16.25 12.9667L15 13.3333L15.3667 12.0833L15 10.8333L16.25 11.2Z" stroke="#1D6169" stroke-linecap="round" stroke-linejoin="round"/>
</svg>
