<svg width="36" height="37" viewBox="0 0 36 37" fill="none" xmlns="http://www.w3.org/2000/svg">
<path d="M16.5 27.5C16.5 28.3284 17.1716 29 18 29C18.8284 29 19.5 28.3284 19.5 27.5C19.5 26.6716 18.8284 26 18 26C17.1716 26 16.5 26.6716 16.5 27.5Z" fill="#A5C2C5"/>
<path d="M16.5 18.5C16.5 19.3284 17.1716 20 18 20C18.8284 20 19.5 19.3284 19.5 18.5C19.5 17.6716 18.8284 17 18 17C17.1716 17 16.5 17.6716 16.5 18.5Z" fill="#A5C2C5"/>
<path d="M16.5 9.5C16.5 10.3284 17.1716 11 18 11C18.8284 11 19.5 10.3284 19.5 9.5C19.5 8.67157 18.8284 8 18 8C17.1716 8 16.5 8.67157 16.5 9.5Z" fill="#A5C2C5"/>
<path d="M16.5 27.5C16.5 28.3284 17.1716 29 18 29C18.8284 29 19.5 28.3284 19.5 27.5C19.5 26.6716 18.8284 26 18 26C17.1716 26 16.5 26.6716 16.5 27.5Z" stroke="#A5C2C5" stroke-width="1.5" stroke-linecap="round" stroke-linejoin="round"/>
<path d="M16.5 18.5C16.5 19.3284 17.1716 20 18 20C18.8284 20 19.5 19.3284 19.5 18.5C19.5 17.6716 18.8284 17 18 17C17.1716 17 16.5 17.6716 16.5 18.5Z" stroke="#A5C2C5" stroke-width="1.5" stroke-linecap="round" stroke-linejoin="round"/>
<path d="M16.5 9.5C16.5 10.3284 17.1716 11 18 11C18.8284 11 19.5 10.3284 19.5 9.5C19.5 8.67157 18.8284 8 18 8C17.1716 8 16.5 8.67157 16.5 9.5Z" stroke="#A5C2C5" stroke-width="1.5" stroke-linecap="round" stroke-linejoin="round"/>
</svg>
