<svg width="38" height="38" viewBox="0 0 38 38" fill="none" xmlns="http://www.w3.org/2000/svg">
<path d="M35.0694 8.57651L27.0251 0.514663L26.9842 0.47374C26.9321 0.421772 26.8706 0.380118 26.803 0.350971H26.7445H26.686C26.6627 0.348036 26.6392 0.348036 26.6159 0.350971H26.5574H9.45743C8.69431 0.360075 7.96501 0.667268 7.42537 1.20691C6.88572 1.74656 6.57853 2.47585 6.56943 3.23897V6.0042H4.6285C4.12304 6.0042 3.63828 6.205 3.28087 6.56241C2.92345 6.91983 2.72266 7.40459 2.72266 7.91005V13.3294C2.72265 13.8354 2.92326 14.3208 3.28051 14.6791C3.63776 15.0375 4.1225 15.2396 4.6285 15.2411H6.56943V34.8199C6.57853 35.583 6.88572 36.3123 7.42537 36.852C7.96501 37.3916 8.69431 37.6988 9.45743 37.7079H32.3802C32.7587 37.7071 33.1333 37.6318 33.4827 37.4863C33.8321 37.3407 34.1494 37.1278 34.4165 36.8596C34.6836 36.5914 34.8952 36.2733 35.0393 35.9233C35.1835 35.5733 35.2573 35.1984 35.2565 34.8199V9.06759C35.2658 8.97681 35.2537 8.88512 35.2212 8.79984C35.1888 8.71457 35.1368 8.63808 35.0694 8.57651ZM27.1479 2.29189L33.263 8.40697H28.8667C28.4118 8.40697 27.9755 8.22669 27.6534 7.90562C27.3312 7.58456 27.1494 7.14888 27.1479 6.69405V2.29189ZM3.89189 13.3294V7.85159C3.89111 7.75464 3.90963 7.6585 3.94637 7.56878C3.98311 7.47905 4.03734 7.39754 4.1059 7.32898C4.17446 7.26043 4.25597 7.2062 4.34569 7.16946C4.43541 7.13271 4.53155 7.11419 4.6285 7.11497H18.782C18.879 7.11419 18.9751 7.13271 19.0648 7.16946C19.1546 7.2062 19.2361 7.26043 19.3046 7.32898C19.3732 7.39754 19.4274 7.47905 19.4642 7.56878C19.5009 7.6585 19.5194 7.75464 19.5187 7.85159V13.3294C19.5194 13.4267 19.5009 13.5231 19.4643 13.6131C19.4276 13.7032 19.3735 13.7851 19.305 13.8541C19.2365 13.9231 19.155 13.9779 19.0653 14.0153C18.9755 14.0527 18.8793 14.0719 18.782 14.0719H4.6285C4.53127 14.0719 4.43501 14.0527 4.34525 14.0153C4.2555 13.9779 4.17404 13.9231 4.10556 13.8541C4.03708 13.7851 3.98294 13.7032 3.94627 13.6131C3.9096 13.5231 3.89112 13.4267 3.89189 13.3294ZM32.3802 36.5387H9.45743C9.00158 36.5387 8.5644 36.3576 8.24207 36.0352C7.91974 35.7129 7.73866 35.2757 7.73866 34.8199V15.2411H18.782C19.288 15.2396 19.7728 15.0375 20.13 14.6791C20.4873 14.3208 20.6879 13.8354 20.6879 13.3294V7.85159C20.6879 7.34612 20.4871 6.86136 20.1297 6.50395C19.7723 6.14653 19.2875 5.94574 18.782 5.94574H7.73866V3.18051C7.73866 2.72466 7.91974 2.28749 8.24207 1.96516C8.5644 1.64282 9.00158 1.46174 9.45743 1.46174H25.9787V6.72328C25.9802 7.48821 26.2852 8.22128 26.8266 8.76162C27.368 9.30197 28.1017 9.60543 28.8667 9.60543H34.0873V34.8199C34.088 35.0448 34.0445 35.2677 33.9591 35.4758C33.8738 35.684 33.7482 35.8732 33.5897 36.0328C33.4312 36.1924 33.2428 36.3192 33.0353 36.406C32.8277 36.4928 32.6051 36.5379 32.3802 36.5387Z" fill="#37575B"/>
<path d="M7.24813 8.44173H5.7749V12.7386H6.49983V11.4817H7.25983C7.75776 11.5145 8.25271 11.3831 8.66875 11.1076C8.83141 10.9623 8.95749 10.7807 9.03672 10.5775C9.11596 10.3744 9.14612 10.1554 9.12475 9.93834C9.14321 9.72208 9.11228 9.50445 9.0343 9.30189C8.95631 9.09934 8.83332 8.91716 8.67459 8.76911C8.24956 8.50242 7.74692 8.38706 7.24813 8.44173ZM8.18352 10.5931C7.95111 10.7734 7.65721 10.8553 7.36506 10.8211H6.49983V9.10234H7.23644C7.53618 9.07976 7.83619 9.1426 8.10167 9.28357C8.20311 9.35729 8.28275 9.45705 8.33214 9.57231C8.38154 9.68757 8.39887 9.81404 8.38229 9.93834C8.39882 10.1736 8.32805 10.4067 8.18352 10.5931Z" fill="#37575B"/>
<path d="M11.4508 8.44164H9.97754V12.7386H11.404C12.0709 12.7936 12.7325 12.5835 13.2455 12.154C13.4477 11.945 13.6041 11.6962 13.7047 11.4234C13.8054 11.1506 13.8481 10.8598 13.8302 10.5696C13.8463 10.2792 13.7993 9.98873 13.6923 9.71823C13.5853 9.44774 13.4209 9.20368 13.2105 9.00287C12.7141 8.6034 12.0867 8.40329 11.4508 8.44164ZM12.7018 11.6921C12.3691 11.9515 11.954 12.0823 11.5326 12.0604H10.7025V9.13734H11.4274C12.5557 9.13734 13.1169 9.62841 13.1169 10.6106C13.1295 10.8101 13.0989 11.01 13.0273 11.1966C12.9557 11.3832 12.8447 11.5522 12.7018 11.6921Z" fill="#37575B"/>
<path d="M14.7832 12.739H15.5081V10.9676H17.414V10.3012H15.5081V9.12025H17.642L17.6478 8.44209H14.7832V12.739Z" fill="#37575B"/>
<path d="M29.8732 19.8244H11.9723C11.8173 19.8244 11.6686 19.886 11.5589 19.9956C11.4493 20.1052 11.3877 20.2539 11.3877 20.409C11.3877 20.564 11.4493 20.7127 11.5589 20.8224C11.6686 20.932 11.8173 20.9936 11.9723 20.9936H29.8732C30.0283 20.9936 30.177 20.932 30.2866 20.8224C30.3963 20.7127 30.4578 20.564 30.4578 20.409C30.4578 20.2539 30.3963 20.1052 30.2866 19.9956C30.177 19.886 30.0283 19.8244 29.8732 19.8244Z" fill="#37575B"/>
<path d="M29.8732 23.4782H11.9723C11.8173 23.4782 11.6686 23.5398 11.5589 23.6494C11.4493 23.759 11.3877 23.9077 11.3877 24.0628C11.3877 24.2178 11.4493 24.3665 11.5589 24.4762C11.6686 24.5858 11.8173 24.6474 11.9723 24.6474H29.8732C30.0283 24.6474 30.177 24.5858 30.2866 24.4762C30.3963 24.3665 30.4578 24.2178 30.4578 24.0628C30.4578 23.9077 30.3963 23.759 30.2866 23.6494C30.177 23.5398 30.0283 23.4782 29.8732 23.4782Z" fill="#37575B"/>
<path d="M29.8732 27.132H11.9723C11.8173 27.132 11.6686 27.1936 11.5589 27.3032C11.4493 27.4129 11.3877 27.5616 11.3877 27.7166C11.3877 27.8717 11.4493 28.0204 11.5589 28.13C11.6686 28.2396 11.8173 28.3012 11.9723 28.3012H29.8732C30.0283 28.3012 30.177 28.2396 30.2866 28.13C30.3963 28.0204 30.4578 27.8717 30.4578 27.7166C30.4578 27.5616 30.3963 27.4129 30.2866 27.3032C30.177 27.1936 30.0283 27.132 29.8732 27.132Z" fill="#37575B"/>
<path d="M29.8732 30.7802H11.9723C11.8173 30.7802 11.6686 30.8418 11.5589 30.9514C11.4493 31.061 11.3877 31.2097 11.3877 31.3648C11.3877 31.5198 11.4493 31.6685 11.5589 31.7782C11.6686 31.8878 11.8173 31.9494 11.9723 31.9494H29.8732C30.0283 31.9494 30.177 31.8878 30.2866 31.7782C30.3963 31.6685 30.4578 31.5198 30.4578 31.3648C30.4578 31.2097 30.3963 31.061 30.2866 30.9514C30.177 30.8418 30.0283 30.7802 29.8732 30.7802Z" fill="#37575B"/>
</svg>
