<svg width="20" height="20" viewBox="0 0 20 20" fill="none" xmlns="http://www.w3.org/2000/svg">
<path d="M8.75009 13.75C9.4067 13.75 10.0569 13.6206 10.6635 13.3694C11.2701 13.1181 11.8213 12.7498 12.2856 12.2855C12.7499 11.8212 13.1182 11.27 13.3695 10.6634C13.6208 10.0568 13.7501 9.40658 13.7501 8.74997C13.7501 8.09336 13.6208 7.44318 13.3695 6.83655C13.1182 6.22993 12.7499 5.67873 12.2856 5.21444C11.8213 4.75014 11.2701 4.38185 10.6635 4.13057C10.0569 3.8793 9.4067 3.74997 8.75009 3.74997C7.42401 3.74997 6.15224 4.27676 5.21456 5.21444C4.27688 6.15212 3.75009 7.42389 3.75009 8.74997C3.75009 10.0761 4.27688 11.3478 5.21456 12.2855C6.15224 13.2232 7.42401 13.75 8.75009 13.75ZM14.0168 12.8383L17.0001 15.8216C17.0796 15.8986 17.143 15.9906 17.1866 16.0923C17.2302 16.194 17.2532 16.3033 17.254 16.414C17.2549 16.5246 17.2338 16.6343 17.1918 16.7367C17.1498 16.8391 17.0879 16.9321 17.0096 17.0103C16.9313 17.0885 16.8382 17.1503 16.7357 17.1921C16.6333 17.234 16.5236 17.255 16.4129 17.2539C16.3023 17.2529 16.1929 17.2298 16.0913 17.1861C15.9897 17.1423 15.8977 17.0788 15.8209 16.9991L12.8376 14.0158C11.498 15.0557 9.81242 15.5459 8.12406 15.3868C6.43569 15.2277 4.87143 14.4311 3.74972 13.1592C2.62801 11.8873 2.03316 10.2358 2.08628 8.54074C2.1394 6.84572 2.83648 5.23466 4.03563 4.03551C5.23478 2.83636 6.84585 2.13928 8.54086 2.08616C10.2359 2.03304 11.8874 2.62789 13.1593 3.7496C14.4312 4.87131 15.2278 6.43557 15.3869 8.12393C15.5461 9.8123 15.0558 11.4979 14.0159 12.8375L14.0168 12.8383Z" fill="#DEE9EB"/>
</svg>
