<svg width="20" height="21" viewBox="0 0 20 21" fill="none" xmlns="http://www.w3.org/2000/svg">
<path d="M2.989 11.9823C4.47186 13.4565 7.05794 15.4999 10.0002 15.4999C12.9424 15.4999 15.5279 13.4565 17.0108 11.9823C17.4019 11.5936 17.5981 11.3985 17.7226 11.0168C17.8115 10.7444 17.8115 10.2556 17.7226 9.98325C17.5981 9.60151 17.4019 9.40642 17.0108 9.01759C15.5279 7.5434 12.9424 5.5 10.0002 5.5C7.05794 5.5 4.47186 7.5434 2.989 9.01759C2.59761 9.40669 2.4019 9.60137 2.27733 9.98325C2.18848 10.2556 2.18848 10.7444 2.27733 11.0168C2.40191 11.3986 2.59761 11.5932 2.989 11.9823Z" stroke="#4D777C" stroke-width="2" stroke-linecap="round" stroke-linejoin="round"/>
<path d="M2.989 11.9823C4.47186 13.4565 7.05794 15.4999 10.0002 15.4999C12.9424 15.4999 15.5279 13.4565 17.0108 11.9823C17.4019 11.5936 17.5981 11.3985 17.7226 11.0168C17.8115 10.7444 17.8115 10.2556 17.7226 9.98325C17.5981 9.60151 17.4019 9.40642 17.0108 9.01759C15.5279 7.5434 12.9424 5.5 10.0002 5.5C7.05794 5.5 4.47186 7.5434 2.989 9.01759C2.59761 9.40669 2.4019 9.60137 2.27733 9.98325C2.18848 10.2556 2.18848 10.7444 2.27733 11.0168C2.40191 11.3986 2.59761 11.5932 2.989 11.9823Z" stroke="black" stroke-opacity="0.2" stroke-width="2" stroke-linecap="round" stroke-linejoin="round"/>
<path d="M2.989 11.9823C4.47186 13.4565 7.05794 15.4999 10.0002 15.4999C12.9424 15.4999 15.5279 13.4565 17.0108 11.9823C17.4019 11.5936 17.5981 11.3985 17.7226 11.0168C17.8115 10.7444 17.8115 10.2556 17.7226 9.98325C17.5981 9.60151 17.4019 9.40642 17.0108 9.01759C15.5279 7.5434 12.9424 5.5 10.0002 5.5C7.05794 5.5 4.47186 7.5434 2.989 9.01759C2.59761 9.40669 2.4019 9.60137 2.27733 9.98325C2.18848 10.2556 2.18848 10.7444 2.27733 11.0168C2.40191 11.3986 2.59761 11.5932 2.989 11.9823Z" stroke="black" stroke-opacity="0.2" stroke-width="2" stroke-linecap="round" stroke-linejoin="round"/>
<path d="M8.33333 10.5C8.33333 11.4205 9.07953 12.1667 10 12.1667C10.9205 12.1667 11.6667 11.4205 11.6667 10.5C11.6667 9.57953 10.9205 8.83333 10 8.83333C9.07953 8.83333 8.33333 9.57953 8.33333 10.5Z" stroke="#4D777C" stroke-width="2" stroke-linecap="round" stroke-linejoin="round"/>
<path d="M8.33333 10.5C8.33333 11.4205 9.07953 12.1667 10 12.1667C10.9205 12.1667 11.6667 11.4205 11.6667 10.5C11.6667 9.57953 10.9205 8.83333 10 8.83333C9.07953 8.83333 8.33333 9.57953 8.33333 10.5Z" stroke="black" stroke-opacity="0.2" stroke-width="2" stroke-linecap="round" stroke-linejoin="round"/>
<path d="M8.33333 10.5C8.33333 11.4205 9.07953 12.1667 10 12.1667C10.9205 12.1667 11.6667 11.4205 11.6667 10.5C11.6667 9.57953 10.9205 8.83333 10 8.83333C9.07953 8.83333 8.33333 9.57953 8.33333 10.5Z" stroke="black" stroke-opacity="0.2" stroke-width="2" stroke-linecap="round" stroke-linejoin="round"/>
</svg>
