<svg width="1440" height="900" viewBox="0 0 1440 900" fill="none" xmlns="http://www.w3.org/2000/svg">
<g clip-path="url(#clip0_1328_32583)">
<rect width="1440" height="900" fill="#155860"/>
<rect width="1440" height="900" fill="#0A4950"/>
<rect width="1440" height="900" fill="url(#paint0_linear_1328_32583)" fill-opacity="0.5"/>
<path d="M925.721 586.215C1101.15 359.893 1334.71 146.932 1590.22 276.215C1880.14 422.908 1980.22 1476.22 1590.22 1108.22C1200.22 740.215 987.971 1337.97 758.221 1108.22C528.471 878.465 794.56 755.425 925.721 586.215Z" fill="#3D7B82"/>
<path d="M925.721 586.215C1101.15 359.893 1334.71 146.932 1590.22 276.215C1880.14 422.908 1980.22 1476.22 1590.22 1108.22C1200.22 740.215 987.971 1337.97 758.221 1108.22C528.471 878.465 794.56 755.425 925.721 586.215Z" fill="url(#paint1_linear_1328_32583)" fill-opacity="0.6"/>
<path d="M1356.43 -207.269C1070.12 -212.518 757.776 -164.106 698.277 115.997C630.765 433.822 1388.54 1172.24 1346.4 637.683C1304.27 103.13 1903 312.592 1868.09 -10.4431C1833.17 -333.478 1570.48 -203.344 1356.43 -207.269Z" fill="#3D7B82"/>
<path d="M1356.43 -207.269C1070.12 -212.518 757.776 -164.106 698.277 115.997C630.765 433.822 1388.54 1172.24 1346.4 637.683C1304.27 103.13 1903 312.592 1868.09 -10.4431C1833.17 -333.478 1570.48 -203.344 1356.43 -207.269Z" fill="url(#paint2_linear_1328_32583)" fill-opacity="0.6"/>
<g opacity="0.8">
<path d="M1108.89 77.5998C1323.24 -198.875 1608.61 -459.026 1920.8 -301.095C2275.03 -121.895 2397.32 1164.82 1920.8 715.273C1444.29 265.726 1184.95 995.935 904.235 715.273C623.518 434.611 948.636 284.306 1108.89 77.5998Z" fill="#3D7B82"/>
<path d="M1108.89 77.5998C1323.24 -198.875 1608.61 -459.026 1920.8 -301.095C2275.03 -121.895 2397.32 1164.82 1920.8 715.273C1444.29 265.726 1184.95 995.935 904.235 715.273C623.518 434.611 948.636 284.306 1108.89 77.5998Z" fill="url(#paint3_linear_1328_32583)" fill-opacity="0.6"/>
</g>
<path d="M1869.21 728.155C1787.36 1002.56 1646.47 1285.5 1361.52 1257.22C1038.19 1225.13 564.459 279.057 1061.04 481.371C1557.62 683.686 1539.67 49.6241 1836.89 180.894C2134.1 312.163 1930.41 522.997 1869.21 728.155Z" fill="#3D7B82"/>
<path d="M1869.21 728.155C1787.36 1002.56 1646.47 1285.5 1361.52 1257.22C1038.19 1225.13 564.459 279.057 1061.04 481.371C1557.62 683.686 1539.67 49.6241 1836.89 180.894C2134.1 312.163 1930.41 522.997 1869.21 728.155Z" fill="url(#paint4_linear_1328_32583)" fill-opacity="0.6"/>
</g>
<defs>
<linearGradient id="paint0_linear_1328_32583" x1="29.5001" y1="450" x2="531.117" y2="814.857" gradientUnits="userSpaceOnUse">
<stop stop-color="#C0F3F9"/>
<stop offset="1" stop-color="#2EB3C4"/>
</linearGradient>
<linearGradient id="paint1_linear_1328_32583" x1="556" y1="1126" x2="1312.72" y2="1138.7" gradientUnits="userSpaceOnUse">
<stop stop-color="#C0F3F9"/>
<stop offset="0.598792" stop-color="#69CDD9"/>
<stop offset="1" stop-color="#2EB3C4"/>
</linearGradient>
<linearGradient id="paint2_linear_1328_32583" x1="1382.24" y1="-127.17" x2="1450.26" y2="526.258" gradientUnits="userSpaceOnUse">
<stop stop-color="#C0F3F9"/>
<stop offset="1" stop-color="#2EB3C4"/>
</linearGradient>
<linearGradient id="paint3_linear_1328_32583" x1="823.5" y1="230.5" x2="1290.74" y2="593.906" gradientUnits="userSpaceOnUse">
<stop stop-color="#C0F3F9"/>
<stop offset="1" stop-color="#2EB3C4"/>
</linearGradient>
<linearGradient id="paint4_linear_1328_32583" x1="1515" y1="350" x2="682.68" y2="683.482" gradientUnits="userSpaceOnUse">
<stop stop-color="#2EB3C4"/>
<stop offset="1" stop-color="#C0F3F9"/>
</linearGradient>
<clipPath id="clip0_1328_32583">
<rect width="1440" height="900" fill="white"/>
</clipPath>
</defs>
</svg>
